<?xml version="1.0" standalone="no"?>
<!DOCTYPE svg PUBLIC "-//W3C//DTD SVG 20010904//EN"
 "http://www.w3.org/TR/2001/REC-SVG-20010904/DTD/svg10.dtd">
<svg version="1.0" xmlns="http://www.w3.org/2000/svg"
 width="1200.000000pt" height="1200.000000pt" viewBox="0 0 1200.000000 1200.000000"
 preserveAspectRatio="xMidYMid meet">
<metadata>
Created by potrace 1.14, written by Peter Selinger 2001-2017
</metadata>
<g transform="translate(0.000000,1200.000000) scale(0.100000,-0.100000)"
fill="#000000" stroke="none">
<path d="M5780 11680 c-323 -21 -544 -81 -602 -163 -20 -27 -21 -38 -14 -166
3 -75 13 -167 21 -206 20 -94 74 -204 129 -263 l46 -49 0 -149 0 -149 -118
-34 c-64 -19 -236 -73 -382 -122 -1128 -373 -1895 -776 -2109 -1108 -70 -109
-71 -118 -71 -541 l0 -376 -29 -17 c-76 -45 -131 -157 -131 -265 0 -68 12
-108 89 -310 44 -117 63 -240 63 -412 1 -170 -17 -250 -80 -377 -58 -113 -75
-180 -70 -272 4 -100 35 -163 136 -276 116 -130 140 -162 151 -203 13 -46 15
-1683 2 -1727 -17 -60 -51 -112 -145 -225 -129 -153 -141 -179 -141 -300 0
-90 3 -104 57 -260 71 -203 90 -309 91 -505 1 -180 -11 -248 -92 -490 l-56
-170 -3 -337 -3 -337 40 -83 c81 -170 212 -347 383 -515 127 -126 205 -189
373 -302 501 -337 1125 -532 1975 -618 143 -15 269 -18 690 -18 543 0 662 7
1010 56 879 124 1577 426 2054 889 179 174 311 348 398 525 l39 80 -4 340 -3
340 -57 169 c-77 228 -91 307 -90 486 1 175 23 309 70 445 75 214 85 255 80
335 -5 106 -34 159 -169 308 -32 35 -73 94 -90 130 l-33 67 -3 843 c-2 585 1
856 8 884 9 30 38 68 120 154 132 139 161 192 168 303 5 94 -10 153 -78 301
-62 135 -74 194 -73 365 1 171 21 296 69 418 73 190 86 237 82 312 -4 88 -34
150 -105 224 l-53 55 0 371 c0 418 -1 427 -71 536 -242 375 -1150 823 -2564
1263 l-40 13 -3 148 -3 148 56 58 c101 105 143 228 152 445 l6 140 -31 35
c-66 75 -192 119 -412 144 -165 18 -462 25 -630 15z m695 -163 c44 -8 109 -23
144 -32 56 -16 61 -20 46 -31 -26 -19 -184 -54 -315 -70 -158 -19 -534 -18
-702 1 -138 16 -304 51 -313 65 -11 18 231 67 415 84 109 9 647 -3 725 -17z
m-873 -254 c210 -26 707 -25 873 1 66 10 148 26 183 36 l64 18 -7 -52 c-31
-247 -168 -388 -425 -439 -165 -33 -489 -29 -631 8 -139 36 -253 119 -302 219
-35 71 -57 157 -57 222 l0 51 80 -23 c44 -13 144 -31 222 -41z m8 -540 l85
-27 305 0 305 0 85 27 c47 15 93 30 103 34 16 5 17 -6 17 -144 0 -176 -3 -170
110 -203 305 -88 775 -250 1116 -385 806 -319 1311 -627 1425 -869 l29 -61 0
-398 c0 -394 3 -437 33 -437 20 0 95 -82 112 -122 24 -58 19 -89 -35 -216 -27
-66 -58 -156 -69 -202 -47 -193 -51 -469 -11 -624 11 -44 43 -127 71 -185 57
-118 70 -191 49 -257 -9 -25 -44 -70 -107 -133 -110 -111 -147 -164 -171 -241
-15 -50 -17 -131 -17 -900 0 -789 1 -849 18 -910 27 -95 72 -173 150 -258 38
-42 83 -97 100 -122 46 -65 43 -121 -15 -275 -25 -66 -55 -160 -66 -210 -46
-197 -53 -468 -17 -640 9 -44 42 -154 73 -245 l56 -165 3 -305 4 -305 -48 -88
c-149 -271 -416 -548 -728 -753 -517 -339 -1142 -532 -1975 -611 -262 -24
-977 -24 -1240 0 -1030 97 -1786 387 -2299 882 -172 166 -298 330 -377 491
l-36 71 5 304 c4 334 -3 288 81 525 69 195 87 359 67 597 -15 165 -46 298
-101 436 -23 56 -44 123 -47 150 -8 71 26 136 131 249 88 96 137 179 153 257
4 22 6 441 3 930 l-5 890 -28 56 c-16 34 -68 100 -128 165 -114 124 -139 164
-139 228 0 41 31 146 50 171 25 32 82 162 95 216 35 147 28 426 -15 607 -11
44 -42 136 -70 205 -27 69 -50 138 -50 154 1 43 34 106 70 134 17 13 45 36 61
51 l29 26 0 404 0 403 29 61 c55 117 223 267 457 410 254 154 711 364 1179
540 205 78 738 257 903 304 112 32 112 33 112 206 0 135 1 146 18 141 9 -4 55
-19 102 -34z"/>
<path d="M3006 8289 c-47 -37 -34 -76 43 -128 254 -172 714 -346 1151 -436 91
-19 162 -34 158 -34 -48 -5 -314 -60 -455 -96 -410 -103 -696 -229 -837 -371
-67 -67 -89 -115 -92 -199 -1 -39 -10 -88 -20 -110 -24 -56 -44 -134 -44 -173
0 -55 25 -98 114 -192 50 -52 98 -114 115 -148 63 -124 61 -93 61 -1070 0
-858 -1 -892 -20 -953 -19 -64 -63 -134 -160 -259 -105 -136 -115 -227 -45
-433 53 -160 71 -233 85 -354 13 -118 3 -213 -55 -518 -92 -483 -112 -672 -81
-780 90 -311 487 -689 986 -939 448 -224 929 -352 1570 -416 173 -18 676 -24
870 -11 912 61 1642 295 2188 703 114 85 326 293 401 393 28 39 75 116 104
173 50 100 51 107 55 202 5 106 -14 277 -53 486 -13 71 -40 216 -59 322 -58
310 -50 434 45 727 39 123 49 166 49 222 0 99 -19 143 -116 272 -95 127 -121
172 -140 246 -21 78 -20 1797 1 1878 25 96 63 157 161 258 131 135 135 150 79
306 -25 69 -36 119 -38 168 -4 84 -26 133 -93 199 -236 237 -888 434 -1754
530 -629 70 -1367 81 -2049 29 -189 -14 -246 -15 -365 -5 -589 50 -1168 221
-1602 473 -55 33 -108 59 -116 59 -8 0 -27 -9 -42 -21z m2258 -558 c25 -21 20
-68 -9 -87 -23 -15 -46 -15 -247 -5 -220 11 -475 35 -532 50 -28 6 157 35 383
59 103 11 385 -1 405 -17z m771 -6 c14 -13 25 -29 25 -35 0 -6 -11 -22 -25
-35 -40 -40 -146 -31 -160 14 -16 51 17 79 93 80 33 1 49 -5 67 -24z m2955
-931 c-164 -334 -1099 -593 -2404 -664 -243 -13 -935 -13 -1169 0 -914 52
-1626 191 -2052 400 -217 107 -327 203 -361 317 -23 77 -18 93 14 42 152 -239
796 -460 1657 -569 451 -57 762 -74 1325 -74 560 0 874 17 1325 74 897 114
1555 349 1673 597 l17 36 3 -48 c3 -38 -3 -62 -28 -111z m-5489 -764 c458
-232 1284 -400 2209 -450 238 -13 811 -13 1055 0 578 31 1105 104 1481 205 51
14 96 25 102 25 5 0 17 -19 26 -42 16 -39 16 -42 -1 -60 -47 -46 -527 -146
-953 -198 -1399 -169 -2988 -20 -3851 361 -185 82 -236 132 -177 173 31 22 40
20 109 -14z m-57 -1834 c276 -275 843 -501 1556 -621 397 -66 701 -92 1203
-102 l329 -6 15 -24 c21 -31 4 -70 -33 -79 -45 -11 -705 4 -902 21 -1043 88
-1849 350 -2234 725 -94 91 -104 114 -67 151 29 29 50 18 133 -65z m-150
-1435 c114 -73 238 -140 339 -182 108 -45 137 -94 71 -119 -22 -9 -41 -5 -98
16 -164 63 -440 221 -466 267 -13 24 -13 28 9 51 14 15 31 26 39 26 8 0 56
-26 106 -59z m-4 -338 c78 -45 110 -73 110 -96 0 -32 -27 -67 -51 -67 -11 0
-65 27 -120 61 -115 71 -131 96 -85 136 26 22 28 22 64 7 20 -8 57 -27 82 -41z"/>
</g>
</svg>
